<svg width="128" height="42" viewBox="0 0 128 42" fill="none" xmlns="http://www.w3.org/2000/svg">
<path d="M28.4862 26.8724L24.7062 12.8524H26.9862L29.7662 24.4524L32.9662 12.8524H35.3062L38.4062 24.4524L41.1862 12.8524H43.4662L39.6262 26.8524H37.1462L34.0862 15.8724L30.9262 26.8524L28.4862 26.8724ZM48.9362 27.0924C47.9629 27.0924 47.0962 26.8791 46.3362 26.4524C45.5896 26.0124 45.0029 25.4058 44.5762 24.6324C44.1496 23.8591 43.9362 22.9591 43.9362 21.9324C43.9362 20.8924 44.1429 19.9791 44.5562 19.1924C44.9829 18.4058 45.5696 17.7924 46.3162 17.3524C47.0762 16.9124 47.9562 16.6924 48.9562 16.6924C49.9296 16.6924 50.7762 16.9124 51.4962 17.3524C52.2162 17.7791 52.7762 18.3524 53.1762 19.0724C53.5762 19.7924 53.7762 20.5858 53.7762 21.4524C53.7762 21.5858 53.7696 21.7324 53.7562 21.8924C53.7562 22.0391 53.7496 22.2058 53.7362 22.3924H46.0162C46.0829 23.3524 46.3962 24.0858 46.9562 24.5924C47.5296 25.0858 48.1896 25.3324 48.9362 25.3324C49.5362 25.3324 50.0362 25.1991 50.4362 24.9324C50.8496 24.6524 51.1562 24.2791 51.3562 23.8124H53.4762C53.2096 24.7458 52.6762 25.5258 51.8762 26.1524C51.0896 26.7791 50.1096 27.0924 48.9362 27.0924ZM48.9362 18.4324C48.2296 18.4324 47.6029 18.6458 47.0562 19.0724C46.5096 19.4858 46.1762 20.1124 46.0562 20.9524H51.6562C51.6162 20.1791 51.3429 19.5658 50.8362 19.1124C50.3296 18.6591 49.6962 18.4324 48.9362 18.4324ZM55.9759 26.8524V12.4524H58.0959V26.8524H55.9759ZM60.7806 26.8524V12.4524H62.9006V26.8524H60.7806ZM69.5453 27.0924C68.292 27.0924 67.2586 26.7858 66.4453 26.1724C65.632 25.5591 65.1653 24.7458 65.0453 23.7324H67.1853C67.292 24.1858 67.5453 24.5791 67.9453 24.9124C68.3453 25.2324 68.872 25.3924 69.5253 25.3924C70.1653 25.3924 70.632 25.2591 70.9253 24.9924C71.2186 24.7258 71.3653 24.4191 71.3653 24.0724C71.3653 23.5658 71.1586 23.2258 70.7453 23.0524C70.3453 22.8658 69.7853 22.6991 69.0653 22.5524C68.5053 22.4324 67.9453 22.2724 67.3853 22.0724C66.8386 21.8724 66.3786 21.5924 66.0053 21.2324C65.6453 20.8591 65.4653 20.3591 65.4653 19.7324C65.4653 18.8658 65.7986 18.1458 66.4653 17.5724C67.132 16.9858 68.0653 16.6924 69.2653 16.6924C70.372 16.6924 71.2653 16.9591 71.9453 17.4924C72.6386 18.0258 73.0453 18.7791 73.1653 19.7524H71.1253C71.0586 19.3258 70.8586 18.9924 70.5253 18.7524C70.2053 18.5124 69.772 18.3924 69.2253 18.3924C68.692 18.3924 68.2786 18.5058 67.9853 18.7324C67.692 18.9458 67.5453 19.2258 67.5453 19.5724C67.5453 19.9191 67.7453 20.1924 68.1453 20.3924C68.5586 20.5924 69.0986 20.7724 69.7653 20.9324C70.432 21.0791 71.0453 21.2524 71.6053 21.4524C72.1786 21.6391 72.6386 21.9191 72.9853 22.2924C73.332 22.6658 73.5053 23.2124 73.5053 23.9324C73.5186 24.8391 73.1653 25.5924 72.4453 26.1924C71.7386 26.7924 70.772 27.0924 69.5453 27.0924ZM75.8197 31.2524V16.9324H77.7197L77.9397 18.4724C78.2597 18.0058 78.6997 17.5924 79.2597 17.2324C79.8197 16.8724 80.5397 16.6924 81.4197 16.6924C82.3797 16.6924 83.2263 16.9191 83.9597 17.3724C84.693 17.8258 85.2663 18.4458 85.6797 19.2324C86.1063 20.0191 86.3197 20.9124 86.3197 21.9124C86.3197 22.9124 86.1063 23.8058 85.6797 24.5924C85.2663 25.3658 84.693 25.9791 83.9597 26.4324C83.2263 26.8724 82.373 27.0924 81.3997 27.0924C80.6263 27.0924 79.9397 26.9391 79.3397 26.6324C78.753 26.3258 78.2863 25.8924 77.9397 25.3324V31.2524H75.8197ZM81.0397 25.2524C81.9463 25.2524 82.693 24.9458 83.2797 24.3324C83.8663 23.7058 84.1597 22.8924 84.1597 21.8924C84.1597 21.2391 84.0263 20.6591 83.7597 20.1524C83.493 19.6458 83.1263 19.2524 82.6597 18.9724C82.193 18.6791 81.653 18.5324 81.0397 18.5324C80.133 18.5324 79.3863 18.8458 78.7997 19.4724C78.2263 20.0991 77.9397 20.9058 77.9397 21.8924C77.9397 22.8924 78.2263 23.7058 78.7997 24.3324C79.3863 24.9458 80.133 25.2524 81.0397 25.2524ZM88.6126 26.8524V16.9324H90.5126L90.6926 18.8124C91.0393 18.1591 91.5193 17.6458 92.1326 17.2724C92.7593 16.8858 93.5126 16.6924 94.3926 16.6924V18.9124H93.8126C93.226 18.9124 92.6993 19.0124 92.2326 19.2124C91.7793 19.3991 91.4126 19.7258 91.1326 20.1924C90.866 20.6458 90.7326 21.2791 90.7326 22.0924V26.8524H88.6126ZM97.4103 15.0524C97.0103 15.0524 96.677 14.9324 96.4103 14.6924C96.157 14.4391 96.0303 14.1258 96.0303 13.7524C96.0303 13.3791 96.157 13.0724 96.4103 12.8324C96.677 12.5791 97.0103 12.4524 97.4103 12.4524C97.8103 12.4524 98.137 12.5791 98.3903 12.8324C98.657 13.0724 98.7903 13.3791 98.7903 13.7524C98.7903 14.1258 98.657 14.4391 98.3903 14.6924C98.137 14.9324 97.8103 15.0524 97.4103 15.0524ZM96.3503 26.8524V16.9324H98.4703V26.8524H96.3503ZM101.269 26.8524V16.9324H103.149L103.309 18.6724C103.616 18.0591 104.062 17.5791 104.649 17.2324C105.249 16.8724 105.936 16.6924 106.709 16.6924C107.909 16.6924 108.849 17.0658 109.529 17.8124C110.222 18.5591 110.569 19.6724 110.569 21.1524V26.8524H108.469V21.3724C108.469 19.4524 107.682 18.4924 106.109 18.4924C105.322 18.4924 104.669 18.7724 104.149 19.3324C103.642 19.8924 103.389 20.6924 103.389 21.7324V26.8524H101.269ZM117.126 23.8124C116.606 23.8124 116.126 23.7524 115.686 23.6324L114.826 24.4724C114.972 24.5658 115.152 24.6458 115.366 24.7124C115.579 24.7791 115.879 24.8391 116.266 24.8924C116.652 24.9458 117.179 24.9991 117.846 25.0524C119.166 25.1724 120.119 25.4924 120.706 26.0124C121.292 26.5191 121.586 27.1991 121.586 28.0524C121.586 28.6391 121.426 29.1924 121.106 29.7124C120.799 30.2458 120.312 30.6724 119.646 30.9924C118.992 31.3258 118.152 31.4924 117.126 31.4924C115.739 31.4924 114.612 31.2258 113.746 30.6924C112.892 30.1724 112.466 29.3791 112.466 28.3124C112.466 27.8991 112.572 27.4858 112.786 27.0724C113.012 26.6724 113.366 26.2924 113.846 25.9324C113.566 25.8124 113.319 25.6858 113.106 25.5524C112.906 25.4058 112.726 25.2591 112.566 25.1124V24.6324L114.286 22.8724C113.512 22.2058 113.126 21.3324 113.126 20.2524C113.126 19.5991 113.279 19.0058 113.586 18.4724C113.906 17.9258 114.366 17.4924 114.966 17.1724C115.566 16.8524 116.286 16.6924 117.126 16.6924C117.686 16.6924 118.206 16.7724 118.686 16.9324H122.386V18.3324L120.626 18.4324C120.946 18.9791 121.106 19.5858 121.106 20.2524C121.106 20.9191 120.946 21.5191 120.626 22.0524C120.319 22.5858 119.866 23.0124 119.266 23.3324C118.679 23.6524 117.966 23.8124 117.126 23.8124ZM117.126 22.1524C117.739 22.1524 118.232 21.9924 118.606 21.6724C118.992 21.3391 119.186 20.8724 119.186 20.2724C119.186 19.6591 118.992 19.1924 118.606 18.8724C118.232 18.5524 117.739 18.3924 117.126 18.3924C116.499 18.3924 115.992 18.5524 115.606 18.8724C115.232 19.1924 115.046 19.6591 115.046 20.2724C115.046 20.8724 115.232 21.3391 115.606 21.6724C115.992 21.9924 116.499 22.1524 117.126 22.1524ZM114.466 28.1124C114.466 28.6858 114.719 29.1124 115.226 29.3924C115.732 29.6858 116.366 29.8324 117.126 29.8324C117.859 29.8324 118.452 29.6724 118.906 29.3524C119.359 29.0458 119.586 28.6324 119.586 28.1124C119.586 27.7258 119.432 27.3924 119.126 27.1124C118.819 26.8458 118.239 26.6791 117.386 26.6124C116.746 26.5724 116.179 26.5124 115.686 26.4324C115.219 26.6858 114.899 26.9591 114.726 27.2524C114.552 27.5458 114.466 27.8324 114.466 28.1124Z" fill="#0B385F"/>
<path fill-rule="evenodd" clip-rule="evenodd" d="M13.2075 23.6364C13.2075 23.6364 8.23939 14.9572 12.9794 7.0746C16.3509 1.46779 20.2465 0.789978 21.0213 0.306831C25.6635 -2.58795 22.6338 15.7538 13.2075 23.6364Z" fill="#FCE989"/>
<path fill-rule="evenodd" clip-rule="evenodd" d="M12.8181 33.3615C12.7623 33.3615 12.7078 33.331 12.6746 33.2745C12.5516 33.0653 12.5057 29.5681 12.9839 25.0974C13.4331 20.8974 14.4695 14.6877 16.8554 8.95601C16.8961 8.85848 16.9987 8.81704 17.0848 8.86278C17.1707 8.9089 17.2076 9.02539 17.1669 9.12302C14.8302 14.7366 13.8008 20.8196 13.3488 24.9341C12.8383 29.58 12.9265 32.8132 12.9773 33.0917C13.008 33.1761 12.983 33.2761 12.9134 33.3286C12.8841 33.3509 12.8509 33.3615 12.8181 33.3615Z" fill="#0B385F"/>
<path fill-rule="evenodd" clip-rule="evenodd" d="M2.22323 11.4076C3.22016 11.2625 5.39115 12.0938 7.535 15.659C10.5491 20.6714 9.83227 26.8275 7.47831 27.4211L7.53375 27.406C8.0234 30.9952 7.81124 33.1147 7.71747 33.2745C7.6843 33.331 7.62969 33.3615 7.57395 33.3615C7.54113 33.3615 7.50796 33.3509 7.47859 33.3286C7.40778 33.2753 7.38314 33.1725 7.41648 33.0872C7.45731 32.9096 7.6296 31.1847 7.29028 28.2301C7.26307 27.9933 7.23194 27.7435 7.19632 27.4812L7.19582 27.4825C0.505787 28.7003 -0.0845261 11.7433 2.22323 11.4076Z" fill="#0B385F"/>
<g filter="url(#filter0_d_1_6593)">
<path fill-rule="evenodd" clip-rule="evenodd" d="M7.63062 33.3238C7.5978 33.3238 7.56464 33.3133 7.53526 33.291C7.46445 33.2376 7.43981 33.1348 7.47315 33.0495C7.51398 32.872 7.68627 31.147 7.34695 28.1925C7.04063 25.5259 6.23622 21.2199 4.14285 15.8483C4.10443 15.7496 4.14371 15.6342 4.23072 15.5906C4.31746 15.5468 4.41946 15.5915 4.45796 15.6903C8.51325 26.096 7.94565 32.9447 7.77414 33.2369C7.74097 33.2934 7.68636 33.3238 7.63062 33.3238Z" fill="#DFE5EA"/>
</g>
<defs>
<filter id="filter0_d_1_6593" x="0.128113" y="15.5738" width="11.7731" height="25.7501" filterUnits="userSpaceOnUse" color-interpolation-filters="sRGB">
<feFlood flood-opacity="0" result="BackgroundImageFix"/>
<feColorMatrix in="SourceAlpha" type="matrix" values="0 0 0 0 0 0 0 0 0 0 0 0 0 0 0 0 0 0 127 0" result="hardAlpha"/>
<feOffset dy="4"/>
<feGaussianBlur stdDeviation="2"/>
<feComposite in2="hardAlpha" operator="out"/>
<feColorMatrix type="matrix" values="0 0 0 0 0 0 0 0 0 0 0 0 0 0 0 0 0 0 0.25 0"/>
<feBlend mode="normal" in2="BackgroundImageFix" result="effect1_dropShadow_1_6593"/>
<feBlend mode="normal" in="SourceGraphic" in2="effect1_dropShadow_1_6593" result="shape"/>
</filter>
</defs>
</svg>
